<?xml version="1.0" encoding="UTF-8"?>
<svg xmlns="http://www.w3.org/2000/svg" xmlns:xlink="http://www.w3.org/1999/xlink" version="1.1" id="Ebene_1" x="0px" y="0px" viewBox="0 0 108 43" style="enable-background:new 0 0 108 43;" xml:space="preserve">
<style type="text/css">
	.st0{display:none;fill:#FFFFFF;}
	.st1{fill:#062D64;}
	.st2{fill:#FBBA00;}
</style>
	<rect y="0" class="st0" width="108" height="43"></rect>
	<g>
	<path class="st1" d="M18.6,5.8H30l1.6,15.5h0.1c0.4-1.3,7-15.5,7-15.5h11.3l0.2,30.4H39.4l1.1-16.7c-0.4,1-7.6,16.7-7.6,16.7h-6.8   c0,0-2.3-15.4-2.2-16.7h0c-0.3,1.2-4.3,16.7-4.3,16.7H8.9L18.6,5.8L18.6,5.8z"></path>
		<polygon class="st2" points="71.5,5.8 54.9,36.3 52.1,36.3 52,24.2 60,5.8  "></polygon>
		<polygon class="st1" points="73.9,5.8 84.5,5.8 83,15.7 79.8,15.7 76.5,36.3 65.4,36.3 68.7,15.4  "></polygon>
		<polygon class="st1" points="88.8,8 88.6,9.7 91.4,9.7 91.1,11.9 88.2,11.9 88,13.5 91,13.5 90.7,15.7 85.1,15.7 86.6,5.9    92.2,5.9 91.9,8  "></polygon>
		<path class="st1" d="M99.4,8.4c-0.1-0.1-0.4-0.3-1.2-0.3c-1.6,0-2.8,1.2-3.1,2.7c-0.2,1.5,0.6,2.7,2.2,2.7c0.7,0,1.1-0.2,1.2-0.3   l-0.4,2.6c-0.3,0-0.6,0.2-1.3,0.1c-1.4,0-2.6-0.5-3.5-1.4c-0.9-1-1.2-2.3-1-3.7c0.2-1.3,0.9-2.6,2-3.6c1.1-1,2.6-1.6,4-1.6   c0.7,0,1.1,0.1,1.3,0.2L99.4,8.4L99.4,8.4z"></path>
</g>
</svg>
